<svg width="720" height="720" viewBox="0 0 720 720" fill="none" xmlns="http://www.w3.org/2000/svg">
<circle cx="360" cy="360" r="360" fill="white"/>
<path d="M119.73 113.624L129.717 138.392C130.145 139.452 130.99 140.293 132.058 140.718L157.006 150.631C160.53 152.033 160.53 156.985 157.006 158.386L132.058 168.3C130.99 168.725 130.143 169.565 129.717 170.625L119.73 195.393C118.32 198.892 113.33 198.892 111.919 195.393L101.933 170.625C101.506 169.565 100.659 168.725 99.591 168.3L74.6432 158.386C71.1189 156.985 71.1189 152.032 74.6432 150.631L99.591 140.718C100.659 140.293 101.506 139.453 101.933 138.392L111.919 113.624C113.33 110.125 118.32 110.125 119.73 113.624ZM602.388 145.898L609.796 164.27C610.113 165.057 610.741 165.68 611.533 165.995L630.039 173.349C632.654 174.388 632.654 178.062 630.039 179.101L611.533 186.455C610.741 186.769 610.113 187.393 609.796 188.18L602.388 206.552C601.342 209.147 597.641 209.147 596.594 206.552L589.187 188.18C588.87 187.393 588.241 186.769 587.45 186.455L568.944 179.101C566.33 178.062 566.33 174.388 568.944 173.349L587.45 165.995C588.242 165.68 588.87 165.057 589.187 164.27L596.594 145.898C597.641 143.302 601.341 143.302 602.388 145.898Z" fill="black"/>
<path d="M649.075 339.844C649.906 335.32 646.422 331.059 641.294 330.327C636.165 329.594 631.335 332.667 630.504 337.19C629.673 341.714 633.157 345.975 638.286 346.707C643.414 347.44 648.245 344.367 649.075 339.844Z" fill="black"/>
<path d="M155.87 285.227C164.911 284.248 171.34 276.991 170.23 269.017C169.12 261.043 160.891 255.373 151.851 256.352C142.81 257.331 136.381 264.589 137.491 272.563C138.601 280.536 146.83 286.206 155.87 285.227Z" fill="black"/>
<path d="M300.597 237.077C302.704 228.166 297.187 219.234 288.276 217.127C279.364 215.021 270.432 220.537 268.326 229.449C266.219 238.36 271.735 247.292 280.647 249.399C289.558 251.505 298.49 245.989 300.597 237.077Z" fill="black"/>
<path d="M464.303 244.859C470.778 238.384 470.778 227.885 464.303 221.41C457.828 214.935 447.33 214.935 440.855 221.41C434.38 227.885 434.38 238.384 440.855 244.859C447.33 251.334 457.828 251.334 464.303 244.859Z" fill="black"/>
<path d="M404.733 245.062C404.733 242.926 403.883 240.877 402.371 239.367C400.858 237.856 398.807 237.007 396.668 237.007C385.652 237.007 376.692 228.057 376.692 217.055C376.692 214.919 375.842 212.87 374.33 211.359C372.817 209.849 370.766 209 368.627 209C368.564 209 368.502 209.008 368.439 209.009C368.377 209.008 368.316 209 368.252 209C366.113 209 364.062 209.849 362.549 211.359C361.037 212.87 360.187 214.919 360.187 217.055C360.187 228.057 351.225 237.007 340.211 237.007C338.095 236.996 336.059 237.816 334.543 239.291C333.027 240.765 332.153 242.776 332.109 244.89C332.065 247.003 332.855 249.048 334.308 250.585C335.761 252.121 337.761 253.025 339.876 253.101C342.183 267.632 354.11 278.736 368.441 278.736C382.771 278.736 394.699 267.63 397.004 253.101C399.082 253.016 401.047 252.132 402.487 250.634C403.927 249.135 404.732 247.139 404.733 245.062ZM368.439 262.627C361.85 262.627 356.408 256.933 355.683 249.633C360.649 247.265 365.011 243.801 368.439 239.502C371.868 243.801 376.23 247.265 381.196 249.633C380.47 256.932 375.029 262.627 368.439 262.627ZM308.193 466.292C291.271 466.293 273.785 454.876 264.733 436.116C264.273 435.163 264.005 434.129 263.946 433.073C263.886 432.017 264.035 430.959 264.384 429.961C264.734 428.962 265.277 428.042 265.982 427.253C266.688 426.464 267.542 425.822 268.496 425.363C269.45 424.903 270.486 424.636 271.543 424.576C272.601 424.516 273.659 424.665 274.659 425.014C275.659 425.363 276.58 425.906 277.37 426.61C278.16 427.315 278.803 428.168 279.263 429.121C287.288 445.751 304.059 454.351 316.646 448.294C329.234 442.236 332.946 423.775 324.922 407.144C323.993 405.22 323.868 403.005 324.574 400.989C325.28 398.972 326.759 397.318 328.686 396.39C330.613 395.464 332.83 395.339 334.849 396.044C336.868 396.749 338.524 398.226 339.453 400.15C351.339 424.784 344.25 452.891 323.65 462.807C318.738 465.173 313.494 466.292 308.193 466.292ZM477.792 453.072C471.862 453.072 465.775 451.656 459.842 448.83C449.096 443.713 440.083 434.482 434.467 422.841C433.538 420.916 433.413 418.702 434.119 416.685C434.825 414.668 436.304 413.014 438.231 412.086C440.159 411.16 442.375 411.036 444.394 411.741C446.413 412.446 448.069 413.922 448.998 415.846C453.025 424.194 459.342 430.745 466.785 434.288C473.629 437.548 480.588 437.807 486.381 435.019C492.174 432.231 496.307 426.633 498.017 419.256C499.878 411.233 498.684 402.218 494.655 393.869C493.763 391.95 493.662 389.756 494.376 387.763C495.09 385.77 496.56 384.138 498.469 383.219C500.378 382.3 502.573 382.168 504.578 382.852C506.584 383.537 508.239 384.981 509.187 386.875C514.804 398.516 516.419 411.307 513.732 422.892C510.895 435.121 503.668 444.581 493.383 449.532C488.521 451.874 483.19 453.084 477.792 453.072ZM228.161 394.212C226.379 394.212 224.566 393.856 222.826 393.103C216.014 390.156 212.882 382.252 215.832 375.449C218.167 370.061 220.731 364.775 223.516 359.604C227.038 353.076 235.191 350.636 241.727 354.154C248.263 357.672 250.706 365.814 247.184 372.342C244.761 376.837 242.532 381.434 240.503 386.119C239.46 388.523 237.736 390.57 235.543 392.008C233.35 393.446 230.784 394.212 228.161 394.212ZM210.32 503C203.48 503 197.629 497.808 196.956 490.867C194.75 468.1 196.367 444.243 201.764 419.961C203.371 412.723 210.551 408.154 217.798 409.764C225.045 411.371 229.616 418.541 228.008 425.778C223.226 447.299 221.78 468.328 223.715 488.28C224.43 495.659 219.019 502.222 211.629 502.936C211.194 502.979 210.757 503 210.32 503Z" fill="black"/>
<path d="M585.022 519.833C586.96 506.054 587.933 492.156 587.935 478.241C587.935 447.651 583.33 417.733 574.252 389.315C563.393 355.327 559.529 321.079 562.77 287.522C563.417 280.822 563.718 274.003 563.669 267.257C563.395 230.068 552.497 194.149 532.091 163.027C533.9 150.094 536.226 129.638 536.211 109.965C536.184 76.0455 529.291 56.94 514.511 49.8357C503.11 44.3552 482.637 42.4819 435.571 86.534C430.738 84.7876 365.982 75.1915 365.982 75.1915C368.75 78.0037 367.09 76.2996 365.982 75.1915C369.898 75.6685 368.492 75.4973 365.982 75.1915C363.192 74.8515 362.024 74.6983 365.982 75.1915C364.348 76.2065 362.593 77.2964 365.982 75.1915L327.083 79.9114C327.083 79.9114 307.128 85.3001 297.551 89.1871C248.597 42.4618 227.501 44.2089 215.794 49.8343C199.393 57.7183 192.585 80.7557 194.368 122.335C195.509 148.952 199.818 173.592 200.001 174.628L200.037 174.825L200.26 175.985C184.801 204.304 176.654 236.247 176.654 268.705C176.654 273.778 176.852 278.904 177.245 283.94C179.968 318.855 175.858 352.773 165.028 384.753C154.948 414.519 149.838 445.973 149.838 478.24C149.838 490.457 150.622 502.625 152.109 514.653C141.229 508.586 133.817 496.973 133.817 483.718V450.613C133.817 425.284 113.222 404.678 87.9083 404.678C62.595 404.678 42 425.285 42 450.613V483.718C42 553.901 99.0669 611 169.21 611C169.81 611 549.393 610.457 550.122 610.334C582.201 609.5 608 587.123 608 559.718C607.997 543.537 598.993 529.114 585.022 519.833ZM68.9307 483.719V476.51H106.885V483.719C106.885 489.327 107.64 494.77 109.049 499.954H70.2625C69.3805 494.587 68.9351 489.158 68.9307 483.719ZM87.907 431.627C98.3708 431.627 106.885 440.145 106.885 450.616V460.342H68.9307V450.616C68.9307 440.145 77.4431 431.627 87.907 431.627ZM169.209 584.054C125.247 584.054 87.8278 555.589 74.3276 516.121H116.054C125.071 530.822 139.994 541.57 157.471 544.942C160.553 558.252 164.596 571.322 169.567 584.047C169.448 584.05 169.328 584.054 169.209 584.054ZM548.27 583.429C547.598 583.429 546.943 583.494 546.297 583.59H390.041C394.543 576.472 397.105 568.347 397.105 559.721C397.105 531.788 370.311 509.066 337.376 509.066C329.939 509.066 323.91 515.097 323.91 522.538C323.91 529.979 329.94 536.011 337.376 536.011C355.153 536.011 370.173 546.869 370.173 559.721C370.173 572.573 355.154 583.43 337.376 583.43C336.704 583.43 336.049 583.496 335.403 583.591H198.504C184.266 551.219 176.77 514.982 176.77 478.244C176.77 448.922 181.401 420.379 190.536 393.404C202.541 357.951 207.104 320.419 204.095 281.848C203.756 277.506 203.586 273.085 203.586 268.709C203.586 239.288 211.356 210.367 226.056 185.072C227.69 182.261 228.253 178.952 227.638 175.758L226.508 169.865C226.241 168.322 222.441 146.027 221.331 122.453C219.362 80.647 227.426 74.1532 227.402 74.1505C230.689 73.0715 248.374 78.2154 285.144 114.711C287.094 116.647 289.59 117.94 292.296 118.416C295.002 118.892 297.789 118.528 300.283 117.373C306.649 114.429 310.864 108.197 318.908 104.559C327.034 100.883 327.083 101.234 341.061 99.0178C372.628 95.6932 356.561 96.8014 367.644 96.8014C389.796 96.8014 395.888 101.234 395.888 101.234C414 107.721 395.888 101.234 415.826 108.437L419.149 109.965C435.571 115.306 426.902 111.85 426.902 111.85C426.902 111.85 430.088 113.217 433.516 114.64C435.949 115.65 438.624 115.924 441.211 115.429C443.798 114.933 446.182 113.688 448.069 111.85C482.975 77.8557 499.778 73.1199 502.796 74.0995C502.863 74.1424 509.461 79.3695 509.275 111.466C509.156 131.911 506.357 153.298 504.7 164.226C504.184 167.636 504.993 171.114 506.96 173.945C526.194 201.596 536.49 233.931 536.737 267.458C536.78 273.279 536.52 279.159 535.963 284.935C532.369 322.151 536.62 360.031 548.599 397.524C556.83 423.286 561.004 450.444 561.004 478.245C561.004 488.855 560.38 499.472 559.154 509.926C555.554 509.357 551.915 509.07 548.27 509.067C540.833 509.067 534.804 515.099 534.804 522.54C534.804 529.981 540.834 536.013 548.27 536.013C566.047 536.013 581.067 546.87 581.067 559.722C581.067 572.571 566.047 583.429 548.27 583.429Z" fill="black"/>
</svg>
