<svg width="9" height="11" viewBox="0 0 9 11" fill="none" xmlns="http://www.w3.org/2000/svg">
<path fill-rule="evenodd" clip-rule="evenodd" d="M7.59323 8.00757C6.93417 9.41892 5.80101 10.1246 4.19376 10.1246H0.411621V0.813477H4.20652C5.49487 0.813477 6.49409 1.26773 7.20417 2.17623C7.83772 2.996 8.15449 4.04606 8.15449 5.32642C8.15449 6.31521 7.9674 7.20893 7.59323 8.00757ZM1.68726 1.89732V9.04704H3.95144C4.38089 9.04704 4.7338 9.00267 5.01018 8.91393C5.50341 8.74913 5.90735 8.43221 6.222 7.96317C6.47287 7.58709 6.65358 7.10537 6.76413 6.51801C6.82791 6.16729 6.8598 5.84192 6.8598 5.5419C6.8598 4.38831 6.62913 3.49248 6.16779 2.85442C5.70645 2.21635 4.96341 1.89732 3.93868 1.89732H1.68726Z" fill="#7A7B80"/>
</svg>
