<svg width="8" height="10" viewBox="0 0 8 10" fill="none" xmlns="http://www.w3.org/2000/svg">
<path d="M4.20304 9.89717C5.20226 9.89717 6.07923 9.67533 6.83396 9.23164C7.58868 8.78795 7.96605 8.05058 7.96605 7.01953C7.96605 6.19132 7.66841 5.55959 7.07313 5.12435C6.72872 4.87504 6.23974 4.67855 5.6062 4.53488L4.29233 4.23697C3.40792 4.03414 2.84028 3.86512 2.58941 3.7299C2.20673 3.51862 2.01539 3.1848 2.01539 2.72843C2.01539 2.31432 2.17909 1.95092 2.5065 1.63823C2.8339 1.32553 3.37178 1.16919 4.12013 1.16919C5.04706 1.16919 5.70399 1.41216 6.09092 1.8981C6.29927 2.16431 6.43533 2.54673 6.49911 3.04535H7.6918C7.6918 2.01008 7.34845 1.25687 6.66175 0.785712C5.97506 0.314557 5.1406 0.0789795 4.15839 0.0789795C3.09115 0.0789795 2.26626 0.347305 1.68374 0.883957C1.10122 1.42061 0.809955 2.10727 0.809955 2.94394C0.809955 3.71722 1.10759 4.29824 1.70287 4.687C2.04728 4.91096 2.63406 5.1159 3.46319 5.30183L4.73241 5.58705C5.42123 5.7434 5.92722 5.92721 6.25037 6.1385C6.56927 6.354 6.72872 6.71529 6.72872 7.22236C6.72872 7.89846 6.35029 8.3675 5.59344 8.62949C5.20226 8.76471 4.76855 8.83232 4.29233 8.83232C3.22933 8.83232 2.48736 8.52385 2.06642 7.90691C1.84531 7.57731 1.71988 7.14841 1.69012 6.62021H0.497434C0.484678 7.62591 0.807829 8.42243 1.46689 9.00979C2.12594 9.60138 3.038 9.89717 4.20304 9.89717Z" fill="#7A7B80"/>
</svg>
