<svg width="40" height="14" viewBox="0 0 40 14" fill="none" xmlns="http://www.w3.org/2000/svg">
<path d="M4.52954 11.1758C6.94653 11.1758 8.43335 9.98926 8.43335 8.11426V8.10693C8.43335 6.49561 7.52515 5.6167 5.35718 5.14062L4.1853 4.88428C2.80835 4.58398 2.17114 4.04199 2.17114 3.17773V3.17041C2.17114 2.15234 3.09399 1.47852 4.50757 1.47119C5.8479 1.47119 6.74878 2.1084 6.90991 3.18506L6.92456 3.2876H8.24292L8.2356 3.17773C8.11841 1.44922 6.60962 0.255371 4.54419 0.255371C2.3689 0.255371 0.830811 1.47119 0.823486 3.20703V3.21436C0.823486 4.75977 1.79028 5.68994 3.85571 6.14404L5.02759 6.40039C6.47778 6.72266 7.08569 7.24268 7.08569 8.17285V8.18018C7.08569 9.27148 6.12622 9.95996 4.60278 9.95996C3.07202 9.95996 2.04663 9.30811 1.89282 8.24609L1.87817 8.14355H0.559814L0.567139 8.24609C0.698975 10.0552 2.24438 11.1758 4.52954 11.1758Z" fill="#7A7B80"/>
<path d="M9.78101 13.5635H11.0554V9.72559H11.0847C11.5608 10.6045 12.447 11.1465 13.5237 11.1465C15.4353 11.1465 16.739 9.60107 16.739 7.19873V7.19141C16.739 4.78906 15.45 3.23633 13.5017 3.23633C12.4104 3.23633 11.5608 3.78564 11.0847 4.67188H11.0554V3.38281H9.78101V13.5635ZM13.2527 10.0186C11.9709 10.0186 11.0481 8.89795 11.0481 7.19873V7.19141C11.0481 5.48486 11.9636 4.36426 13.2527 4.36426C14.6003 4.36426 15.4353 5.44092 15.4353 7.19141V7.19873C15.4353 8.93457 14.6003 10.0186 13.2527 10.0186Z" fill="#7A7B80"/>
<path d="M20.2546 11.1465C21.2727 11.1465 22.1882 10.5972 22.635 9.76221H22.6643V11H23.9387V5.73389C23.9387 4.21045 22.8108 3.23633 21.009 3.23633C19.2146 3.23633 18.1233 4.24707 18.0134 5.49951L18.0061 5.58008H19.2366L19.2512 5.51416C19.3977 4.83301 20.0129 4.36426 20.9944 4.36426C22.0564 4.36426 22.6643 4.92822 22.6643 5.8584V6.49561L20.4817 6.62012C18.7312 6.72266 17.7205 7.53564 17.7205 8.83203V8.84668C17.7205 10.231 18.7385 11.1465 20.2546 11.1465ZM19.0242 8.84668V8.83203C19.0242 8.12158 19.6101 7.66748 20.6282 7.60889L22.6643 7.48438V8.10693C22.6643 9.21289 21.7415 10.0405 20.5403 10.0405C19.6248 10.0405 19.0242 9.5791 19.0242 8.84668Z" fill="#7A7B80"/>
<path d="M28.7141 11.1465C30.4353 11.1465 31.6877 10.0259 31.8928 8.57568L31.9001 8.52441H30.6477L30.6331 8.58301C30.4207 9.43262 29.7542 10.0186 28.7141 10.0186C27.3958 10.0186 26.4875 8.97119 26.4875 7.19873V7.19141C26.4875 5.46289 27.3738 4.36426 28.6995 4.36426C29.8201 4.36426 30.4353 5.03809 30.6257 5.7998L30.6404 5.8584H31.8855L31.8782 5.7998C31.717 4.49609 30.5964 3.23633 28.6995 3.23633C26.5828 3.23633 25.1838 4.77441 25.1838 7.17676V7.18408C25.1838 9.6084 26.5535 11.1465 28.7141 11.1465Z" fill="#7A7B80"/>
<path d="M36.2068 11.1465C37.8694 11.1465 39.1145 10.1504 39.3635 8.89062L39.3782 8.81738H38.1257L38.1038 8.8833C37.884 9.53516 37.2029 10.0186 36.2361 10.0186C34.8811 10.0186 34.0168 9.10303 33.9875 7.53564H39.4734V7.06689C39.4734 4.78174 38.2063 3.23633 36.1262 3.23633C34.0461 3.23633 32.6985 4.85498 32.6985 7.21338V7.2207C32.6985 9.61572 34.0168 11.1465 36.2068 11.1465ZM36.1189 4.36426C37.2322 4.36426 38.0525 5.06006 38.177 6.53955H34.0095C34.1487 5.11865 35.0129 4.36426 36.1189 4.36426Z" fill="#7A7B80"/>
</svg>
